<?xml version="1.0" encoding="iso-8859-1"?>
<!-- Uploaded to: SVG Repo, www.svgrepo.com, Generator: SVG Repo Mixer Tools -->
<!DOCTYPE svg PUBLIC "-//W3C//DTD SVG 1.1//EN" "http://www.w3.org/Graphics/SVG/1.1/DTD/svg11.dtd">
<svg fill="#000000" version="1.1" id="Capa_1" xmlns="http://www.w3.org/2000/svg" xmlns:xlink="http://www.w3.org/1999/xlink" 
	 width="800px" height="800px" viewBox="0 0 39.586 39.586"
	 xml:space="preserve">
<g>
	<g>
		<g>
			<g>
				<circle cx="9.799" cy="29.786" r="3.04"/>
			</g>
			<g>
				<path d="M32.333,30.977c-0.305,0.307-0.727,0.493-1.189,0.493c-0.932,0-1.686-0.753-1.686-1.682
					c0.003-5.251-2.043-10.187-5.756-13.9c-3.715-3.716-8.65-5.761-13.901-5.76c-0.931,0.001-1.685-0.753-1.685-1.683
					C8.117,7.517,8.871,6.762,9.799,6.76c6.15,0.002,11.934,2.397,16.283,6.747c4.35,4.352,6.744,10.134,6.744,16.281
					C32.827,30.25,32.637,30.672,32.333,30.977z"/>
			</g>
			<g>
				<path d="M25.218,30.977c-0.305,0.303-0.726,0.493-1.188,0.494c-0.931,0-1.685-0.755-1.685-1.684
					c0-6.918-5.63-12.547-12.547-12.547c-0.93,0-1.684-0.752-1.684-1.683c0.002-0.929,0.756-1.685,1.684-1.683
					c8.775-0.001,15.914,7.138,15.914,15.913C25.712,30.251,25.524,30.672,25.218,30.977z"/>
			</g>
			<g>
				<path d="M18.106,30.977c-0.305,0.307-0.726,0.493-1.19,0.493c-0.931,0-1.684-0.753-1.684-1.682
					c-0.002-2.996-2.439-5.433-5.433-5.433c-0.931,0-1.685-0.754-1.685-1.685s0.757-1.683,1.687-1.685
					c4.847,0.002,8.795,3.949,8.798,8.799C18.599,30.25,18.411,30.672,18.106,30.977z"/>
			</g>
		</g>
		<g>
			<path d="M0.562,39.023C0.214,38.677,0,38.199,0,37.67V1.915C0,1.409,0.202,0.92,0.562,0.561C0.92,0.202,1.408,0,1.916,0H37.67
				c1.059,0,1.915,0.858,1.915,1.916V37.67c0,0.509-0.202,0.995-0.562,1.354c-0.358,0.359-0.848,0.562-1.354,0.562H1.917
				C1.386,39.585,0.908,39.369,0.562,39.023z M3.832,3.831v31.923h31.925V3.831H3.832z"/>
		</g>
	</g>
</g>
</svg>